<svg width="24" height="27" viewBox="0 0 24 27" fill="none" xmlns="http://www.w3.org/2000/svg">
<path d="M15.9223 12.825C15.9223 13.6485 15.3051 14.3235 14.5234 14.3235C13.7554 14.3235 13.1246 13.6485 13.1246 12.825C13.1246 12.0015 13.7417 11.3265 14.5234 11.3265C15.3051 11.3265 15.9223 12.0015 15.9223 12.825ZM9.51771 11.3265C8.736 11.3265 8.11886 12.0015 8.11886 12.825C8.11886 13.6485 8.74971 14.3235 9.51771 14.3235C10.2994 14.3235 10.9166 13.6485 10.9166 12.825C10.9303 12.0015 10.2994 11.3265 9.51771 11.3265ZM24 2.781V27C20.545 23.9945 21.6499 24.9893 17.6366 21.3165L18.3634 23.814H2.81143C1.26171 23.814 0 22.572 0 21.033V2.781C0 1.242 1.26171 0 2.81143 0H21.1886C22.7383 0 24 1.242 24 2.781ZM20.0914 15.579C20.0914 11.232 18.1166 7.7085 18.1166 7.7085C16.1417 6.2505 14.2629 6.291 14.2629 6.291L14.0709 6.507C16.4023 7.209 17.4857 8.2215 17.4857 8.2215C14.228 6.46392 10.4012 6.4636 7.24114 7.83C6.73371 8.0595 6.432 8.2215 6.432 8.2215C6.432 8.2215 7.57029 7.155 10.0389 6.453L9.90171 6.291C9.90171 6.291 8.02286 6.2505 6.048 7.7085C6.048 7.7085 4.07314 11.232 4.07314 15.579C4.07314 15.579 5.22514 17.5365 8.256 17.631C8.256 17.631 8.76343 17.0235 9.17486 16.5105C7.43314 15.9975 6.77486 14.9175 6.77486 14.9175C6.97661 15.0565 7.30929 15.2367 7.33714 15.255C9.65196 16.5311 12.9401 16.9491 15.8949 15.7275C16.3749 15.552 16.9097 15.2955 17.472 14.931C17.472 14.931 16.7863 16.038 14.9897 16.5375C15.4011 17.0505 15.8949 17.631 15.8949 17.631C18.9257 17.5365 20.0914 15.579 20.0914 15.579V15.579Z" fill="#757575"/>
</svg>
