<svg width="298" height="50" viewBox="0 0 298 50" fill="none" xmlns="http://www.w3.org/2000/svg">
<path fill-rule="evenodd" clip-rule="evenodd" d="M13.3184 3.76225H15.6075V4.42073H13.3184C13.2491 5.44502 13.1797 6.46931 13.1103 7.4936H11.4455V8.81055L13.3184 9.03004V18.9071H15.1913V21.7605H13.3184V27.2478H11.0293V27.9063H13.3184V38.0029H25.3883V42.8317H27.2612V47.002H25.3883V49.6359H2.28911V46.7825H4.16201V43.0512H2.28911V27.9063C1.0534 27.9965 0.442214 28.0819 0 27.2478H2.28911V21.7605H4.37011V19.1266L2.28911 18.9071V9.03004L0.416201 8.81055C0.485568 8.2984 0.554935 7.78626 0.624302 7.27411H2.28911V4.42073C3.55103 4.52147 4.33369 4.60971 4.78631 3.76225H2.28911C2.35847 2.59163 2.42784 1.42101 2.49721 0.250393L13.3184 0.469885V3.76225ZM54.5223 4.42073C54.6611 5.44502 54.7998 6.46931 54.9385 7.4936H53.2737C53.3431 7.93259 53.4125 8.37157 53.4818 8.81055L55.5628 9.03004L58.0601 18.9071H60.1411L60.7654 21.7605H58.8925C59.3087 23.5896 59.7249 25.4187 60.1411 27.2478C58.9316 27.1734 58.4933 27.0841 58.0601 27.9063L60.5573 28.1258L64.095 42.8317L66.176 43.0512L67.0084 47.002H65.3436L65.9679 49.6359H54.7304L54.1061 46.7825H55.771C55.4241 45.5387 55.0773 44.295 54.7304 43.0512C51.6793 42.8888 45.6365 41.4812 42.4525 42.8317H44.1173C43.7705 44.2218 43.4236 45.6119 43.0768 47.002H41.2039L40.5796 49.6359H29.5503L30.1746 46.7825H32.0475L32.8799 43.0512H31.2151C32.4637 38.0029 33.7123 32.9546 34.9609 27.9063H32.8799V27.6868C33.4031 27.3031 34.6933 27.2737 35.169 26.8088C36.2047 24.5933 35.3423 21.7166 38.7067 21.7605L39.331 19.1266H37.4581C38.2905 15.7611 39.1229 12.3956 39.9553 9.03004H38.0824V8.81055C38.2211 8.2984 38.3599 7.78626 38.4986 7.27411C39.4746 7.3044 39.9222 7.3145 40.3715 6.83513L40.9958 4.42073C42.131 4.48109 43.1257 4.46177 43.7011 3.98174V3.76225H41.2039V3.54276L42.0363 0.469885L53.2737 0.250393L54.1061 3.76225C55.3945 3.65448 56.3474 3.55856 56.8115 4.42073H54.5223ZM95.7263 0.469885V3.76225H98.2235V4.42073H95.7263V7.4936H93.8533V8.81055H95.7263V11.8834H83.4483V18.2487C87.0349 18.1848 90.2264 18.3044 92.8129 19.1266V21.7605H90.7318V27.2478H88.4427V27.9063H90.7318C90.6625 28.5648 90.5931 29.2232 90.5237 29.8817H83.4483V42.8317L85.3212 43.0512C85.2519 44.3681 85.1825 45.6851 85.1131 47.002H83.4483V49.6359H72.6271V46.7825H74.2919V43.0512H72.6271V27.9063C71.3914 27.9965 70.7802 28.0819 70.338 27.2478H72.6271V21.7605H74.7081V19.1266L72.6271 18.9071V9.03004L70.7542 8.81055C70.8236 8.2984 70.8929 7.78626 70.9623 7.27411H72.6271V4.42073C73.889 4.52147 74.6717 4.60971 75.1243 3.76225H72.6271C72.6965 2.59163 72.7658 1.42101 72.8352 0.250393L95.7263 0.469885ZM142.965 21.7605H141.092V27.2478H138.803V27.9063H141.092C139.32 34.7226 137.619 38.2224 134.225 42.8317L135.682 43.0512L135.057 43.9291C129.751 46.6054 118.756 52.3943 111.75 46.7825L112.999 46.563H112.582L108.42 43.0512H106.339C103.364 41.6363 99.9016 32.5132 99.4721 27.9063C98.2364 27.9965 97.6252 28.0819 97.183 27.2478H99.264V21.7605H101.345V21.3215C101.484 20.5899 101.622 19.8583 101.761 19.1266H99.8883V18.4682C101.034 14.7691 102.448 12.0272 104.05 9.03004L102.594 8.81055L103.01 8.37157C103.842 6.79562 109.646 4.68872 111.958 3.98174V3.76225H109.669C109.738 3.61592 109.808 3.4696 109.877 3.32327C112.263 2.47296 114.386 1.04254 117.161 0.469885C123.926 -0.926957 129.046 2.49689 134.225 4.20123V4.42073H132.144L134.849 7.27411V7.4936L133.392 7.71309L134.225 8.81055C138.583 8.92359 139.557 15.3215 140.676 18.9071L142.757 19.1266C142.826 20.0046 142.896 20.8826 142.965 21.7605ZM150.04 0.250393C161.324 0.0857749 168.724 1.56339 176.677 4.20123V4.42073H174.388L176.885 7.27411V7.4936H175.221C175.36 7.85949 175.497 8.22517 175.637 8.59106L177.926 9.03004C178.532 12.0682 179.062 15.2884 178.55 18.9071H180.423C180.146 19.7119 179.869 20.5167 179.591 21.3215C179.037 21.8172 178.271 21.2965 177.51 21.7605C176.636 22.2937 173.966 26.5454 173.972 27.2478L171.891 27.4673C171.96 27.6137 172.03 27.7599 172.099 27.9063H174.388C176.193 32.8814 177.996 37.8566 179.799 42.8317L181.672 43.0512L182.92 47.002H181.464L182.088 49.6359H170.642C170.366 48.6848 170.088 47.7337 169.81 46.7825H171.267C170.78 43.8743 169.806 44.1282 168.145 42.6122C166.62 38.4419 165.094 34.2715 163.567 30.1012H160.862V42.8317H162.527V47.002H160.862V49.6359H150.04V46.7825H151.705V43.0512H150.04V27.9063C148.805 27.9965 148.194 28.0819 147.751 27.2478H150.04V21.7605H151.913V19.1266H150.04V9.03004H148.168V7.27411H150.04V4.42073C151.302 4.52147 152.085 4.60971 152.538 3.76225H150.04V0.250393ZM210.182 4.42073C210.321 5.44502 210.46 6.46931 210.598 7.4936H208.933C209.002 7.93259 209.072 8.37157 209.141 8.81055L211.222 9.03004L213.719 18.9071H215.8L216.425 21.7605H214.552C214.968 23.5896 215.384 25.4187 215.8 27.2478C214.591 27.1734 214.152 27.0841 213.719 27.9063L216.216 28.1258C217.396 33.0277 218.576 37.9297 219.754 42.8317L221.835 43.0512C222.112 44.3681 222.389 45.6851 222.668 47.002H221.003L221.627 49.6359C219.082 49.7062 211.911 50.6456 210.39 49.1969L209.765 46.7825H211.43V46.563C211.153 45.3924 210.876 44.2218 210.598 43.0512C207.439 42.9208 201.385 41.446 198.112 42.8317H199.777C199.429 44.2218 199.082 45.6119 198.736 47.002L196.863 47.2215L196.239 49.6359H185.21L185.834 46.7825H187.707C187.983 45.5387 188.261 44.295 188.539 43.0512H186.874V42.8317C188.123 37.8566 189.372 32.8814 190.62 27.9063H188.539V27.6868C189.061 27.3031 190.352 27.2737 190.828 26.8088C191.313 25.1261 191.799 23.4433 192.285 21.7605H194.366L194.99 19.3461V19.1266H193.117C193.95 15.7611 194.782 12.3956 195.615 9.03004C194.63 9.04277 194.229 9.00151 193.742 8.59106C193.881 8.15208 194.018 7.71309 194.158 7.27411C195.134 7.3044 195.581 7.3145 196.031 6.83513L196.655 4.42073C197.789 4.48109 198.786 4.46177 199.36 3.98174V3.76225H196.863V3.54276C197.14 2.51847 197.417 1.49418 197.696 0.469885L208.933 0.250393C209.21 1.42101 209.487 2.59163 209.765 3.76225C211.053 3.65448 212.007 3.55856 212.471 4.42073H210.182ZM250.969 9.03004L249.096 8.81055C249.165 8.29848 249.236 7.78618 249.304 7.27411H250.969V4.42073C252.23 4.52147 253.013 4.60971 253.466 3.76225H250.969V0.250393H261.79V3.76225H264.288V4.42073H261.79V7.4936H260.126V8.81055H261.79V18.9071H263.872V21.7605H261.79V27.2478H259.71V27.9063H261.79V42.8317H263.663V47.002H261.79V49.6359H250.969V46.7825H252.842V43.0512H250.969C250.688 38.6815 244.789 31.7807 242.853 27.9063L237.027 27.2478V27.9063H239.108V42.8317L240.98 43.0512C240.912 44.3681 240.842 45.6851 240.772 47.002H239.108V49.6359H228.286V46.7825H230.159V43.0512H228.286V27.9063C227.05 27.9965 226.44 28.0819 225.997 27.2478H228.286V21.7605H230.367V19.1266L228.286 18.9071V9.03004L226.413 8.81055C226.482 8.29848 226.553 7.78618 226.622 7.27411H228.286V4.42073C229.547 4.52147 230.33 4.60971 230.784 3.76225H228.286C228.355 2.59163 228.424 1.42101 228.494 0.250393C231.712 0.190911 237.097 -0.492804 239.524 0.689376C240.887 4.36037 242.025 2.45013 244.102 4.42073L241.813 4.64022C242.298 5.59135 242.783 6.54247 243.27 7.4936H241.605L242.229 8.81055C243.332 8.79211 243.898 8.92578 244.518 9.24953C246.391 12.4687 248.264 15.6879 250.137 18.9071H250.969V9.03004ZM295.503 0.469885V3.76225H298V4.42073H295.503C295.434 5.44502 295.365 6.46931 295.295 7.4936H293.63V8.81055L295.503 9.03004C295.434 9.98117 295.365 10.9323 295.295 11.8834H288.427V18.9071H290.3V21.7605H288.427V27.2478H286.138V27.9063H288.427V42.8317L290.092 43.0512C290.023 44.3681 289.954 45.6851 289.884 47.002H288.427C288.359 47.88 288.289 48.7579 288.219 49.6359L277.398 49.4164C277.467 48.5385 277.536 47.6605 277.606 46.7825H279.271V43.0512L277.398 42.8317V27.9063C276.189 27.9807 275.75 28.07 275.317 27.2478H277.398V21.7605H279.479V19.1266L277.398 18.9071V11.8834H270.323V9.03004H268.45V7.27411H270.323V4.42073C271.584 4.52147 272.366 4.60971 272.82 3.76225H270.323V0.469885H295.503ZM110.293 21.7605V27.2478H108.004C108.074 27.4673 108.143 27.6868 108.212 27.9063H110.501C111.124 34.4948 118.782 40.6131 125.277 36.0275C127.687 34.326 129.046 31.3148 130.063 28.1258V27.9063H127.774C127.843 27.6868 127.912 27.4673 127.982 27.2478L130.271 27.0283C130.202 25.2724 130.132 23.5165 130.063 21.7605H132.144C131.866 20.8826 131.589 20.0046 131.311 19.1266C130.209 19.1451 129.642 19.0114 129.022 18.6877C126.488 9.75436 113.814 10.2276 111.334 18.9071L113.207 19.1266C112.929 20.0046 112.652 20.8826 112.374 21.7605H110.293ZM160.862 11.8834V18.6877C164.056 18.7785 166.16 18.0375 167.937 16.7122V14.0783C167.003 12.1949 163.588 11.8101 160.862 11.8834ZM47.655 22.6385L46.4064 27.2478C45.3451 27.2039 44.6449 27.2436 44.1173 27.6868V27.9063L46.1983 28.1258L45.574 30.9792H49.9441L49.1117 27.9063C47.876 27.9965 47.2648 28.0819 46.8226 27.2478H48.9036L47.655 22.6385ZM203.314 22.6385L202.066 27.2478C201.004 27.2039 200.305 27.2436 199.777 27.6868V27.9063H201.858L201.233 30.9792H205.603C205.327 29.9549 205.049 28.9306 204.771 27.9063C203.535 27.9965 202.925 28.0819 202.482 27.2478H204.563L203.314 22.6385Z" fill="#F4F4F4"/>
</svg>
