<svg width="24" height="17" viewBox="0 0 24 17" fill="none" xmlns="http://www.w3.org/2000/svg">
<path d="M23.4985 14.3401C23.2225 15.3871 22.4092 16.2117 21.3766 16.4915C19.505 17 12 17 12 17C12 17 4.49503 17 2.62336 16.4915C1.59077 16.2116 0.777523 15.3871 0.501503 14.3401C0 12.4423 0 8.48282 0 8.48282C0 8.48282 0 4.52333 0.501503 2.62557C0.777523 1.57857 1.59077 0.788331 2.62336 0.508495C4.49503 1.39078e-07 12 4.76837e-07 12 4.76837e-07C12 4.76837e-07 19.505 1.39078e-07 21.3766 0.508495C22.4092 0.788331 23.2225 1.57857 23.4985 2.62557C24 4.52333 24 8.48282 24 8.48282C24 8.48282 24 12.4423 23.4985 14.3401V14.3401ZM9.54544 4.8879V12.0777L15.8181 8.48273L9.54544 4.8879V4.8879Z" fill="#757575"/>
</svg>
